<mxfile host="app.diagrams.net" modified="2021-08-20T07:01:00.853Z" agent="5.0 (Windows NT 10.0; Win64; x64) AppleWebKit/537.36 (KHTML, like Gecko) Chrome/92.0.4515.159 Safari/537.36" etag="Yi5X7An31l9F5nRGs2wr" version="14.9.3" type="github">
  <diagram id="4SAXBmMKLksp9rvCyfNc" name="Page-1">
    <mxGraphModel dx="2105" dy="545" grid="1" gridSize="10" guides="1" tooltips="1" connect="1" arrows="1" fold="1" page="1" pageScale="1" pageWidth="827" pageHeight="1169" math="0" shadow="0">
      <root>
        <mxCell id="0" />
        <mxCell id="1" parent="0" />
        <mxCell id="sqUARnyobQn-Jelxtu6u-104" value="" style="rounded=1;whiteSpace=wrap;html=1;" vertex="1" parent="1">
          <mxGeometry x="239" y="520" width="160" height="279.5" as="geometry" />
        </mxCell>
        <mxCell id="sqUARnyobQn-Jelxtu6u-33" value="" style="rounded=1;whiteSpace=wrap;html=1;" vertex="1" parent="1">
          <mxGeometry x="490" y="200" width="120" height="200" as="geometry" />
        </mxCell>
        <mxCell id="sqUARnyobQn-Jelxtu6u-26" value="" style="rounded=1;whiteSpace=wrap;html=1;" vertex="1" parent="1">
          <mxGeometry x="240" y="200" width="230" height="200" as="geometry" />
        </mxCell>
        <mxCell id="sqUARnyobQn-Jelxtu6u-23" style="edgeStyle=orthogonalEdgeStyle;rounded=0;orthogonalLoop=1;jettySize=auto;html=1;exitX=1.003;exitY=0.548;exitDx=0;exitDy=0;entryX=0;entryY=0.5;entryDx=0;entryDy=0;entryPerimeter=0;exitPerimeter=0;" edge="1" parent="1" source="sqUARnyobQn-Jelxtu6u-13" target="sqUARnyobQn-Jelxtu6u-10">
          <mxGeometry relative="1" as="geometry" />
        </mxCell>
        <mxCell id="sqUARnyobQn-Jelxtu6u-13" value="" style="rounded=1;whiteSpace=wrap;html=1;" vertex="1" parent="1">
          <mxGeometry x="100" y="200" width="120" height="200" as="geometry" />
        </mxCell>
        <mxCell id="sqUARnyobQn-Jelxtu6u-1" value="&lt;b&gt;Data Sources&lt;/b&gt;" style="text;html=1;strokeColor=none;fillColor=none;align=center;verticalAlign=middle;whiteSpace=wrap;rounded=0;" vertex="1" parent="1">
          <mxGeometry x="120" y="180" width="80" height="20" as="geometry" />
        </mxCell>
        <mxCell id="sqUARnyobQn-Jelxtu6u-3" value="&lt;b&gt;Data&amp;nbsp; Infra&lt;/b&gt;" style="text;html=1;strokeColor=none;fillColor=none;align=center;verticalAlign=middle;whiteSpace=wrap;rounded=0;" vertex="1" parent="1">
          <mxGeometry x="310" y="180" width="80" height="20" as="geometry" />
        </mxCell>
        <mxCell id="sqUARnyobQn-Jelxtu6u-4" value="&lt;b&gt;Biz Insight&lt;/b&gt;" style="text;html=1;strokeColor=none;fillColor=none;align=center;verticalAlign=middle;whiteSpace=wrap;rounded=0;" vertex="1" parent="1">
          <mxGeometry x="512.83" y="180" width="80" height="20" as="geometry" />
        </mxCell>
        <mxCell id="sqUARnyobQn-Jelxtu6u-5" value="" style="aspect=fixed;html=1;points=[];align=center;image;fontSize=12;image=img/lib/azure2/databases/Azure_Database_PostgreSQL_Server.svg;" vertex="1" parent="1">
          <mxGeometry x="138" y="220" width="45" height="60" as="geometry" />
        </mxCell>
        <mxCell id="sqUARnyobQn-Jelxtu6u-25" style="edgeStyle=orthogonalEdgeStyle;rounded=0;orthogonalLoop=1;jettySize=auto;html=1;exitX=1;exitY=0.5;exitDx=0;exitDy=0;exitPerimeter=0;" edge="1" parent="1" source="sqUARnyobQn-Jelxtu6u-7" target="sqUARnyobQn-Jelxtu6u-8">
          <mxGeometry relative="1" as="geometry" />
        </mxCell>
        <mxCell id="sqUARnyobQn-Jelxtu6u-7" value="" style="outlineConnect=0;dashed=0;verticalLabelPosition=bottom;verticalAlign=top;align=center;html=1;shape=mxgraph.aws3.s3;fillColor=#E05243;gradientColor=none;" vertex="1" parent="1">
          <mxGeometry x="290" y="334.33" width="60" height="65.67" as="geometry" />
        </mxCell>
        <mxCell id="sqUARnyobQn-Jelxtu6u-8" value="" style="outlineConnect=0;dashed=0;verticalLabelPosition=bottom;verticalAlign=top;align=center;html=1;shape=mxgraph.aws3.redshift;fillColor=#2E73B8;gradientColor=none;" vertex="1" parent="1">
          <mxGeometry x="380" y="336.5" width="60" height="61.33" as="geometry" />
        </mxCell>
        <mxCell id="sqUARnyobQn-Jelxtu6u-24" style="edgeStyle=orthogonalEdgeStyle;rounded=0;orthogonalLoop=1;jettySize=auto;html=1;entryX=0.5;entryY=0;entryDx=0;entryDy=0;entryPerimeter=0;" edge="1" parent="1" source="sqUARnyobQn-Jelxtu6u-10" target="sqUARnyobQn-Jelxtu6u-7">
          <mxGeometry relative="1" as="geometry" />
        </mxCell>
        <mxCell id="sqUARnyobQn-Jelxtu6u-10" value="" style="points=[[0,0,0],[0.25,0,0],[0.5,0,0],[0.75,0,0],[1,0,0],[0,1,0],[0.25,1,0],[0.5,1,0],[0.75,1,0],[1,1,0],[0,0.25,0],[0,0.5,0],[0,0.75,0],[1,0.25,0],[1,0.5,0],[1,0.75,0]];outlineConnect=0;fontColor=#232F3E;gradientColor=#F34482;gradientDirection=north;fillColor=#BC1356;strokeColor=#ffffff;dashed=0;verticalLabelPosition=bottom;verticalAlign=top;align=center;html=1;fontSize=12;fontStyle=0;aspect=fixed;shape=mxgraph.aws4.resourceIcon;resIcon=mxgraph.aws4.managed_workflows_for_apache_airflow;" vertex="1" parent="1">
          <mxGeometry x="290" y="220" width="60" height="60" as="geometry" />
        </mxCell>
        <mxCell id="sqUARnyobQn-Jelxtu6u-14" value="" style="pointerEvents=1;shadow=0;dashed=0;html=1;strokeColor=none;fillColor=#434445;aspect=fixed;labelPosition=center;verticalLabelPosition=bottom;verticalAlign=top;align=center;outlineConnect=0;shape=mxgraph.vvd.nsx_dashboard;" vertex="1" parent="1">
          <mxGeometry x="517.82" y="221.09" width="62.18" height="57.83" as="geometry" />
        </mxCell>
        <mxCell id="sqUARnyobQn-Jelxtu6u-15" value="" style="shape=image;html=1;verticalAlign=top;verticalLabelPosition=bottom;labelBackgroundColor=#ffffff;imageAspect=0;aspect=fixed;image=https://cdn4.iconfinder.com/data/icons/social-media-logos-6/512/33-slack_chat-128.png" vertex="1" parent="1">
          <mxGeometry x="512.83" y="310" width="72.17" height="72.17" as="geometry" />
        </mxCell>
        <mxCell id="sqUARnyobQn-Jelxtu6u-16" value="&lt;b&gt;&lt;font style=&quot;font-size: 14px&quot;&gt;선택 분야 : 이커머스 플랫폼&lt;/font&gt;&lt;/b&gt;" style="text;html=1;strokeColor=none;fillColor=none;align=center;verticalAlign=middle;whiteSpace=wrap;rounded=0;" vertex="1" parent="1">
          <mxGeometry x="-90" y="140" width="290" height="20" as="geometry" />
        </mxCell>
        <mxCell id="sqUARnyobQn-Jelxtu6u-27" value="" style="endArrow=none;html=1;" edge="1" parent="1">
          <mxGeometry width="50" height="50" relative="1" as="geometry">
            <mxPoint x="490" y="300" as="sourcePoint" />
            <mxPoint x="490" y="300" as="targetPoint" />
          </mxGeometry>
        </mxCell>
        <mxCell id="sqUARnyobQn-Jelxtu6u-28" value="" style="endArrow=none;html=1;" edge="1" parent="1">
          <mxGeometry width="50" height="50" relative="1" as="geometry">
            <mxPoint x="400" y="437.83" as="sourcePoint" />
            <mxPoint x="400" y="397.83" as="targetPoint" />
            <Array as="points">
              <mxPoint x="400" y="417.83" />
            </Array>
          </mxGeometry>
        </mxCell>
        <mxCell id="sqUARnyobQn-Jelxtu6u-30" value="" style="endArrow=none;html=1;" edge="1" parent="1">
          <mxGeometry width="50" height="50" relative="1" as="geometry">
            <mxPoint x="400" y="437" as="sourcePoint" />
            <mxPoint x="420" y="437" as="targetPoint" />
          </mxGeometry>
        </mxCell>
        <mxCell id="sqUARnyobQn-Jelxtu6u-31" value="" style="endArrow=classic;html=1;" edge="1" parent="1">
          <mxGeometry width="50" height="50" relative="1" as="geometry">
            <mxPoint x="420" y="440" as="sourcePoint" />
            <mxPoint x="420" y="410" as="targetPoint" />
          </mxGeometry>
        </mxCell>
        <mxCell id="sqUARnyobQn-Jelxtu6u-32" value="" style="endArrow=classic;html=1;exitX=1.004;exitY=0.415;exitDx=0;exitDy=0;exitPerimeter=0;" edge="1" parent="1" source="sqUARnyobQn-Jelxtu6u-26">
          <mxGeometry width="50" height="50" relative="1" as="geometry">
            <mxPoint x="580" y="330" as="sourcePoint" />
            <mxPoint x="490" y="283" as="targetPoint" />
          </mxGeometry>
        </mxCell>
        <mxCell id="sqUARnyobQn-Jelxtu6u-52" value="List" style="swimlane;fontStyle=0;childLayout=stackLayout;horizontal=1;startSize=26;horizontalStack=0;resizeParent=1;resizeParentMax=0;resizeLast=0;collapsible=1;marginBottom=0;" vertex="1" parent="1">
          <mxGeometry x="249" y="530" width="50" height="104" as="geometry" />
        </mxCell>
        <mxCell id="sqUARnyobQn-Jelxtu6u-53" value="Item 1" style="text;strokeColor=none;fillColor=none;align=left;verticalAlign=top;spacingLeft=4;spacingRight=4;overflow=hidden;rotatable=0;points=[[0,0.5],[1,0.5]];portConstraint=eastwest;" vertex="1" parent="sqUARnyobQn-Jelxtu6u-52">
          <mxGeometry y="26" width="50" height="26" as="geometry" />
        </mxCell>
        <mxCell id="sqUARnyobQn-Jelxtu6u-54" value="Item 2" style="text;strokeColor=none;fillColor=none;align=left;verticalAlign=top;spacingLeft=4;spacingRight=4;overflow=hidden;rotatable=0;points=[[0,0.5],[1,0.5]];portConstraint=eastwest;" vertex="1" parent="sqUARnyobQn-Jelxtu6u-52">
          <mxGeometry y="52" width="50" height="26" as="geometry" />
        </mxCell>
        <mxCell id="sqUARnyobQn-Jelxtu6u-55" value="Item 3" style="text;strokeColor=none;fillColor=none;align=left;verticalAlign=top;spacingLeft=4;spacingRight=4;overflow=hidden;rotatable=0;points=[[0,0.5],[1,0.5]];portConstraint=eastwest;" vertex="1" parent="sqUARnyobQn-Jelxtu6u-52">
          <mxGeometry y="78" width="50" height="26" as="geometry" />
        </mxCell>
        <mxCell id="sqUARnyobQn-Jelxtu6u-56" value="choice_color" style="swimlane;fontStyle=0;childLayout=stackLayout;horizontal=1;startSize=26;horizontalStack=0;resizeParent=1;resizeParentMax=0;resizeLast=0;collapsible=1;marginBottom=0;" vertex="1" parent="1">
          <mxGeometry x="299" y="530" width="90" height="104" as="geometry" />
        </mxCell>
        <mxCell id="sqUARnyobQn-Jelxtu6u-57" value="{&#39;a&#39;:21, &#39;b&#39;:&#39;red&#39;}" style="text;strokeColor=none;fillColor=none;align=left;verticalAlign=top;spacingLeft=4;spacingRight=4;overflow=hidden;rotatable=0;points=[[0,0.5],[1,0.5]];portConstraint=eastwest;" vertex="1" parent="sqUARnyobQn-Jelxtu6u-56">
          <mxGeometry y="26" width="90" height="26" as="geometry" />
        </mxCell>
        <mxCell id="sqUARnyobQn-Jelxtu6u-58" value="{&#39;a&#39;:22, &#39;b&#39;:&#39;black&#39;}" style="text;strokeColor=none;fillColor=none;align=left;verticalAlign=top;spacingLeft=4;spacingRight=4;overflow=hidden;rotatable=0;points=[[0,0.5],[1,0.5]];portConstraint=eastwest;" vertex="1" parent="sqUARnyobQn-Jelxtu6u-56">
          <mxGeometry y="52" width="90" height="26" as="geometry" />
        </mxCell>
        <mxCell id="sqUARnyobQn-Jelxtu6u-59" value="{&#39;a&#39;:25, &#39;b&#39;:&#39;blue&#39;}" style="text;strokeColor=none;fillColor=none;align=left;verticalAlign=top;spacingLeft=4;spacingRight=4;overflow=hidden;rotatable=0;points=[[0,0.5],[1,0.5]];portConstraint=eastwest;" vertex="1" parent="sqUARnyobQn-Jelxtu6u-56">
          <mxGeometry y="78" width="90" height="26" as="geometry" />
        </mxCell>
        <mxCell id="sqUARnyobQn-Jelxtu6u-60" value="List" style="swimlane;fontStyle=0;childLayout=stackLayout;horizontal=1;startSize=26;horizontalStack=0;resizeParent=1;resizeParentMax=0;resizeLast=0;collapsible=1;marginBottom=0;" vertex="1" parent="1">
          <mxGeometry x="249" y="669" width="50" height="104" as="geometry" />
        </mxCell>
        <mxCell id="sqUARnyobQn-Jelxtu6u-61" value="Item 1" style="text;strokeColor=none;fillColor=none;align=left;verticalAlign=top;spacingLeft=4;spacingRight=4;overflow=hidden;rotatable=0;points=[[0,0.5],[1,0.5]];portConstraint=eastwest;" vertex="1" parent="sqUARnyobQn-Jelxtu6u-60">
          <mxGeometry y="26" width="50" height="26" as="geometry" />
        </mxCell>
        <mxCell id="sqUARnyobQn-Jelxtu6u-62" value="Item 2" style="text;strokeColor=none;fillColor=none;align=left;verticalAlign=top;spacingLeft=4;spacingRight=4;overflow=hidden;rotatable=0;points=[[0,0.5],[1,0.5]];portConstraint=eastwest;" vertex="1" parent="sqUARnyobQn-Jelxtu6u-60">
          <mxGeometry y="52" width="50" height="26" as="geometry" />
        </mxCell>
        <mxCell id="sqUARnyobQn-Jelxtu6u-63" value="Item 3" style="text;strokeColor=none;fillColor=none;align=left;verticalAlign=top;spacingLeft=4;spacingRight=4;overflow=hidden;rotatable=0;points=[[0,0.5],[1,0.5]];portConstraint=eastwest;" vertex="1" parent="sqUARnyobQn-Jelxtu6u-60">
          <mxGeometry y="78" width="50" height="26" as="geometry" />
        </mxCell>
        <mxCell id="sqUARnyobQn-Jelxtu6u-64" value="timestamp" style="swimlane;fontStyle=0;childLayout=stackLayout;horizontal=1;startSize=26;horizontalStack=0;resizeParent=1;resizeParentMax=0;resizeLast=0;collapsible=1;marginBottom=0;" vertex="1" parent="1">
          <mxGeometry x="299" y="669" width="90" height="104" as="geometry" />
        </mxCell>
        <mxCell id="sqUARnyobQn-Jelxtu6u-65" value="20210102    " style="text;strokeColor=none;fillColor=none;align=left;verticalAlign=top;spacingLeft=4;spacingRight=4;overflow=hidden;rotatable=0;points=[[0,0.5],[1,0.5]];portConstraint=eastwest;" vertex="1" parent="sqUARnyobQn-Jelxtu6u-64">
          <mxGeometry y="26" width="90" height="26" as="geometry" />
        </mxCell>
        <mxCell id="sqUARnyobQn-Jelxtu6u-66" value="20210105" style="text;strokeColor=none;fillColor=none;align=left;verticalAlign=top;spacingLeft=4;spacingRight=4;overflow=hidden;rotatable=0;points=[[0,0.5],[1,0.5]];portConstraint=eastwest;" vertex="1" parent="sqUARnyobQn-Jelxtu6u-64">
          <mxGeometry y="52" width="90" height="26" as="geometry" />
        </mxCell>
        <mxCell id="sqUARnyobQn-Jelxtu6u-67" value="20210107" style="text;strokeColor=none;fillColor=none;align=left;verticalAlign=top;spacingLeft=4;spacingRight=4;overflow=hidden;rotatable=0;points=[[0,0.5],[1,0.5]];portConstraint=eastwest;" vertex="1" parent="sqUARnyobQn-Jelxtu6u-64">
          <mxGeometry y="78" width="90" height="26" as="geometry" />
        </mxCell>
        <mxCell id="sqUARnyobQn-Jelxtu6u-68" value="&lt;b&gt;PostgreSQL&lt;/b&gt;" style="text;html=1;strokeColor=none;fillColor=none;align=center;verticalAlign=middle;whiteSpace=wrap;rounded=0;" vertex="1" parent="1">
          <mxGeometry x="120.8" y="278.92" width="80" height="20" as="geometry" />
        </mxCell>
        <mxCell id="sqUARnyobQn-Jelxtu6u-69" value="&lt;b&gt;TEXT&lt;/b&gt;" style="text;html=1;strokeColor=none;fillColor=none;align=center;verticalAlign=middle;whiteSpace=wrap;rounded=0;" vertex="1" parent="1">
          <mxGeometry x="120.00000000000001" y="367.17" width="80" height="20" as="geometry" />
        </mxCell>
        <mxCell id="sqUARnyobQn-Jelxtu6u-71" value="&lt;b&gt;Airflow&lt;/b&gt;&lt;span style=&quot;color: rgba(0 , 0 , 0 , 0) ; font-family: monospace ; font-size: 0px&quot;&gt;%3CmxGraphModel%3E%3Croot%3E%3CmxCell%20id%3D%220%22%2F%3E%3CmxCell%20id%3D%221%22%20parent%3D%220%22%2F%3E%3CmxCell%20id%3D%222%22%20value%3D%22%26lt%3Bb%26gt%3BPostgreSQL%26lt%3B%2Fb%26gt%3B%22%20style%3D%22text%3Bhtml%3D1%3BstrokeColor%3Dnone%3BfillColor%3Dnone%3Balign%3Dcenter%3BverticalAlign%3Dmiddle%3BwhiteSpace%3Dwrap%3Brounded%3D0%3B%22%20vertex%3D%221%22%20parent%3D%221%22%3E%3CmxGeometry%20x%3D%22120.8%22%20y%3D%22278.92%22%20width%3D%2280%22%20height%3D%2220%22%20as%3D%22geometry%22%2F%3E%3C%2FmxCell%3E%3C%2Froot%3E%3C%2FmxGraphModel%3E&lt;/span&gt;" style="text;html=1;strokeColor=none;fillColor=none;align=center;verticalAlign=middle;whiteSpace=wrap;rounded=0;" vertex="1" parent="1">
          <mxGeometry x="280" y="278.92" width="80" height="20" as="geometry" />
        </mxCell>
        <mxCell id="sqUARnyobQn-Jelxtu6u-72" value="&lt;b&gt;S3&lt;/b&gt;" style="text;html=1;strokeColor=none;fillColor=none;align=center;verticalAlign=middle;whiteSpace=wrap;rounded=0;" vertex="1" parent="1">
          <mxGeometry x="280" y="397.83000000000004" width="80" height="20" as="geometry" />
        </mxCell>
        <mxCell id="sqUARnyobQn-Jelxtu6u-73" value="&lt;b&gt;Redshift&lt;/b&gt;" style="text;html=1;strokeColor=none;fillColor=none;align=center;verticalAlign=middle;whiteSpace=wrap;rounded=0;" vertex="1" parent="1">
          <mxGeometry x="374" y="397.83000000000004" width="80" height="20" as="geometry" />
        </mxCell>
        <mxCell id="sqUARnyobQn-Jelxtu6u-74" value="&lt;b&gt;DashBoard&lt;/b&gt;&lt;span style=&quot;color: rgba(0 , 0 , 0 , 0) ; font-family: monospace ; font-size: 0px&quot;&gt;%3CmxGraphModel%3E%3Croot%3E%3CmxCell%20id%3D%220%22%2F%3E%3CmxCell%20id%3D%221%22%20parent%3D%220%22%2F%3E%3CmxCell%20id%3D%222%22%20value%3D%22%26lt%3Bb%26gt%3BPostgreSQL%26lt%3B%2Fb%26gt%3B%22%20style%3D%22text%3Bhtml%3D1%3BstrokeColor%3Dnone%3BfillColor%3Dnone%3Balign%3Dcenter%3BverticalAlign%3Dmiddle%3BwhiteSpace%3Dwrap%3Brounded%3D0%3B%22%20vertex%3D%221%22%20parent%3D%221%22%3E%3CmxGeometry%20x%3D%22120.8%22%20y%3D%22278.92%22%20width%3D%2280%22%20height%3D%2220%22%20as%3D%22geometry%22%2F%3E%3C%2FmxCell%3E%3C%2Froot%3E%3C%2FmxGraphModel%3E&lt;/span&gt;" style="text;html=1;strokeColor=none;fillColor=none;align=center;verticalAlign=middle;whiteSpace=wrap;rounded=0;" vertex="1" parent="1">
          <mxGeometry x="510" y="280" width="80" height="20" as="geometry" />
        </mxCell>
        <mxCell id="sqUARnyobQn-Jelxtu6u-75" value="&lt;b&gt;Slack&lt;/b&gt;" style="text;html=1;strokeColor=none;fillColor=none;align=center;verticalAlign=middle;whiteSpace=wrap;rounded=0;" vertex="1" parent="1">
          <mxGeometry x="512.8299999999999" y="379.83000000000004" width="80" height="20" as="geometry" />
        </mxCell>
        <mxCell id="sqUARnyobQn-Jelxtu6u-86" value="List" style="swimlane;fontStyle=0;childLayout=stackLayout;horizontal=1;startSize=26;horizontalStack=0;resizeParent=1;resizeParentMax=0;resizeLast=0;collapsible=1;marginBottom=0;" vertex="1" parent="1">
          <mxGeometry x="410.81999999999994" y="520.5" width="50" height="104" as="geometry" />
        </mxCell>
        <mxCell id="sqUARnyobQn-Jelxtu6u-87" value="Item 1" style="text;strokeColor=none;fillColor=none;align=left;verticalAlign=top;spacingLeft=4;spacingRight=4;overflow=hidden;rotatable=0;points=[[0,0.5],[1,0.5]];portConstraint=eastwest;" vertex="1" parent="sqUARnyobQn-Jelxtu6u-86">
          <mxGeometry y="26" width="50" height="26" as="geometry" />
        </mxCell>
        <mxCell id="sqUARnyobQn-Jelxtu6u-88" value="Item 2" style="text;strokeColor=none;fillColor=none;align=left;verticalAlign=top;spacingLeft=4;spacingRight=4;overflow=hidden;rotatable=0;points=[[0,0.5],[1,0.5]];portConstraint=eastwest;" vertex="1" parent="sqUARnyobQn-Jelxtu6u-86">
          <mxGeometry y="52" width="50" height="26" as="geometry" />
        </mxCell>
        <mxCell id="sqUARnyobQn-Jelxtu6u-89" value="Item 3" style="text;strokeColor=none;fillColor=none;align=left;verticalAlign=top;spacingLeft=4;spacingRight=4;overflow=hidden;rotatable=0;points=[[0,0.5],[1,0.5]];portConstraint=eastwest;" vertex="1" parent="sqUARnyobQn-Jelxtu6u-86">
          <mxGeometry y="78" width="50" height="26" as="geometry" />
        </mxCell>
        <mxCell id="sqUARnyobQn-Jelxtu6u-90" value="timestamp" style="swimlane;fontStyle=0;childLayout=stackLayout;horizontal=1;startSize=26;horizontalStack=0;resizeParent=1;resizeParentMax=0;resizeLast=0;collapsible=1;marginBottom=0;" vertex="1" parent="1">
          <mxGeometry x="512.9999999999999" y="520" width="76" height="104" as="geometry" />
        </mxCell>
        <mxCell id="sqUARnyobQn-Jelxtu6u-91" value="20210102    " style="text;strokeColor=none;fillColor=none;align=left;verticalAlign=top;spacingLeft=4;spacingRight=4;overflow=hidden;rotatable=0;points=[[0,0.5],[1,0.5]];portConstraint=eastwest;" vertex="1" parent="sqUARnyobQn-Jelxtu6u-90">
          <mxGeometry y="26" width="76" height="26" as="geometry" />
        </mxCell>
        <mxCell id="sqUARnyobQn-Jelxtu6u-92" value="20210105" style="text;strokeColor=none;fillColor=none;align=left;verticalAlign=top;spacingLeft=4;spacingRight=4;overflow=hidden;rotatable=0;points=[[0,0.5],[1,0.5]];portConstraint=eastwest;" vertex="1" parent="sqUARnyobQn-Jelxtu6u-90">
          <mxGeometry y="52" width="76" height="26" as="geometry" />
        </mxCell>
        <mxCell id="sqUARnyobQn-Jelxtu6u-93" value="20210107" style="text;strokeColor=none;fillColor=none;align=left;verticalAlign=top;spacingLeft=4;spacingRight=4;overflow=hidden;rotatable=0;points=[[0,0.5],[1,0.5]];portConstraint=eastwest;" vertex="1" parent="sqUARnyobQn-Jelxtu6u-90">
          <mxGeometry y="78" width="76" height="26" as="geometry" />
        </mxCell>
        <mxCell id="sqUARnyobQn-Jelxtu6u-94" value="color" style="swimlane;fontStyle=0;childLayout=stackLayout;horizontal=1;startSize=26;horizontalStack=0;resizeParent=1;resizeParentMax=0;resizeLast=0;collapsible=1;marginBottom=0;" vertex="1" parent="1">
          <mxGeometry x="460.82000000000005" y="520" width="52.18" height="104" as="geometry" />
        </mxCell>
        <mxCell id="sqUARnyobQn-Jelxtu6u-95" value="red" style="text;strokeColor=none;fillColor=none;align=left;verticalAlign=top;spacingLeft=4;spacingRight=4;overflow=hidden;rotatable=0;points=[[0,0.5],[1,0.5]];portConstraint=eastwest;" vertex="1" parent="sqUARnyobQn-Jelxtu6u-94">
          <mxGeometry y="26" width="52.18" height="26" as="geometry" />
        </mxCell>
        <mxCell id="sqUARnyobQn-Jelxtu6u-96" value="black" style="text;strokeColor=none;fillColor=none;align=left;verticalAlign=top;spacingLeft=4;spacingRight=4;overflow=hidden;rotatable=0;points=[[0,0.5],[1,0.5]];portConstraint=eastwest;" vertex="1" parent="sqUARnyobQn-Jelxtu6u-94">
          <mxGeometry y="52" width="52.18" height="26" as="geometry" />
        </mxCell>
        <mxCell id="sqUARnyobQn-Jelxtu6u-97" value="blue" style="text;strokeColor=none;fillColor=none;align=left;verticalAlign=top;spacingLeft=4;spacingRight=4;overflow=hidden;rotatable=0;points=[[0,0.5],[1,0.5]];portConstraint=eastwest;" vertex="1" parent="sqUARnyobQn-Jelxtu6u-94">
          <mxGeometry y="78" width="52.18" height="26" as="geometry" />
        </mxCell>
        <mxCell id="sqUARnyobQn-Jelxtu6u-99" value="&lt;b&gt;PostgreSQL&lt;/b&gt;" style="text;html=1;strokeColor=none;fillColor=none;align=center;verticalAlign=middle;whiteSpace=wrap;rounded=0;" vertex="1" parent="1">
          <mxGeometry x="279" y="634" width="80" height="20" as="geometry" />
        </mxCell>
        <mxCell id="sqUARnyobQn-Jelxtu6u-102" value="&lt;b&gt;&lt;font style=&quot;font-size: 14px&quot;&gt;S3&lt;/font&gt;&lt;/b&gt;" style="text;html=1;strokeColor=none;fillColor=none;align=center;verticalAlign=middle;whiteSpace=wrap;rounded=0;" vertex="1" parent="1">
          <mxGeometry x="279" y="500.00000000000006" width="80" height="20" as="geometry" />
        </mxCell>
        <mxCell id="sqUARnyobQn-Jelxtu6u-103" value="&lt;b&gt;&lt;font style=&quot;font-size: 14px&quot;&gt;Redshift&lt;/font&gt;&lt;/b&gt;" style="text;html=1;strokeColor=none;fillColor=none;align=center;verticalAlign=middle;whiteSpace=wrap;rounded=0;" vertex="1" parent="1">
          <mxGeometry x="453" y="500.00000000000006" width="80" height="20" as="geometry" />
        </mxCell>
        <mxCell id="sqUARnyobQn-Jelxtu6u-106" value="&lt;div style=&quot;text-align: center&quot;&gt;&lt;span&gt;&lt;b&gt;예시 데이터소스 설명&lt;/b&gt;&lt;/span&gt;&lt;/div&gt;&lt;div style=&quot;text-align: center&quot;&gt;&lt;span&gt;&lt;br&gt;&lt;/span&gt;&lt;/div&gt;&lt;div&gt;&lt;span&gt;postgresql : 고객이 선&lt;/span&gt;&lt;span&gt;택한 상품 정보. 사내 DB&lt;/span&gt;&lt;/div&gt;&lt;br&gt;TEXT: 고객의 접속 로그 일부" style="whiteSpace=wrap;html=1;align=left;fillColor=#FFF2CC;" vertex="1" parent="1">
          <mxGeometry x="-40" y="417.83" width="250" height="100" as="geometry" />
        </mxCell>
        <mxCell id="sqUARnyobQn-Jelxtu6u-108" value="" style="shape=note;whiteSpace=wrap;html=1;backgroundOutline=1;darkOpacity=0.05;" vertex="1" parent="1">
          <mxGeometry x="140" y="315" width="40" height="50" as="geometry" />
        </mxCell>
        <mxCell id="sqUARnyobQn-Jelxtu6u-109" value="&lt;b&gt;TEXT&lt;/b&gt;" style="text;html=1;strokeColor=none;fillColor=none;align=center;verticalAlign=middle;whiteSpace=wrap;rounded=0;" vertex="1" parent="1">
          <mxGeometry x="279" y="773" width="80" height="20" as="geometry" />
        </mxCell>
        <mxCell id="sqUARnyobQn-Jelxtu6u-110" value="" style="endArrow=none;dashed=1;html=1;dashPattern=1 3;strokeWidth=2;entryX=0;entryY=0.5;entryDx=0;entryDy=0;" edge="1" parent="1" target="sqUARnyobQn-Jelxtu6u-13">
          <mxGeometry width="50" height="50" relative="1" as="geometry">
            <mxPoint x="60" y="417.17" as="sourcePoint" />
            <mxPoint x="110" y="367.17" as="targetPoint" />
            <Array as="points">
              <mxPoint x="60" y="300" />
            </Array>
          </mxGeometry>
        </mxCell>
        <mxCell id="sqUARnyobQn-Jelxtu6u-111" style="edgeStyle=orthogonalEdgeStyle;rounded=0;orthogonalLoop=1;jettySize=auto;html=1;exitX=0.5;exitY=1;exitDx=0;exitDy=0;" edge="1" parent="1" source="sqUARnyobQn-Jelxtu6u-16" target="sqUARnyobQn-Jelxtu6u-16">
          <mxGeometry relative="1" as="geometry" />
        </mxCell>
        <mxCell id="sqUARnyobQn-Jelxtu6u-112" value="" style="endArrow=none;dashed=1;html=1;" edge="1" parent="1">
          <mxGeometry width="50" height="50" relative="1" as="geometry">
            <mxPoint x="320" y="480" as="sourcePoint" />
            <mxPoint x="320" y="430" as="targetPoint" />
          </mxGeometry>
        </mxCell>
        <mxCell id="sqUARnyobQn-Jelxtu6u-113" value="" style="endArrow=none;dashed=1;html=1;" edge="1" parent="1">
          <mxGeometry width="50" height="50" relative="1" as="geometry">
            <mxPoint x="480" y="480" as="sourcePoint" />
            <mxPoint x="440" y="420" as="targetPoint" />
          </mxGeometry>
        </mxCell>
      </root>
    </mxGraphModel>
  </diagram>
</mxfile>
